<svg xmlns="http://www.w3.org/2000/svg" width="48" height="48" fill="none" viewBox="0 0 48 48">
  <defs>
    <radialGradient id="bg" cx="50%" cy="40%" r="50%">
      <stop offset="0%" stop-color="#1a1a2e"/>
      <stop offset="100%" stop-color="#0f0f1a"/>
    </radialGradient>
    <linearGradient id="blade1" x1="0%" y1="0%" x2="100%" y2="100%">
      <stop offset="0%" stop-color="#c0c0c0"/>
      <stop offset="100%" stop-color="#e8e8e8"/>
    </linearGradient>
    <linearGradient id="blade2" x1="100%" y1="0%" x2="0%" y2="100%">
      <stop offset="0%" stop-color="#c0c0c0"/>
      <stop offset="100%" stop-color="#e8e8e8"/>
    </linearGradient>
    <linearGradient id="handle1" x1="0%" y1="0%" x2="100%" y2="100%">
      <stop offset="0%" stop-color="#d4af37"/>
      <stop offset="100%" stop-color="#b8941f"/>
    </linearGradient>
    <linearGradient id="handle2" x1="100%" y1="0%" x2="0%" y2="100%">
      <stop offset="0%" stop-color="#d4af37"/>
      <stop offset="100%" stop-color="#b8941f"/>
    </linearGradient>
    <linearGradient id="comb" x1="0%" y1="0%" x2="100%" y2="0%">
      <stop offset="0%" stop-color="#d4af37"/>
      <stop offset="100%" stop-color="#c9a030"/>
    </linearGradient>
  </defs>
  <circle cx="24" cy="24" r="23" fill="url(#bg)" stroke="#d4af37" stroke-width="1.5"/>
  <g transform="rotate(-35, 24, 24)">
    <path d="M12 8 L28 28 L28 30 L12 10 Z" fill="url(#blade1)" stroke="#999" stroke-width="0.5"/>
    <ellipse cx="7" cy="14" rx="6" ry="4.5" fill="none" stroke="url(#handle1)" stroke-width="2.5" transform="rotate(-20, 7, 14)"/>
    <line x1="11" y1="9" x2="7" y2="14" stroke="url(#handle1)" stroke-width="2.5" stroke-linecap="round"/>
  </g>
  <g transform="rotate(35, 24, 24)">
    <path d="M12 40 L28 20 L28 18 L12 38 Z" fill="url(#blade2)" stroke="#999" stroke-width="0.5"/>
    <ellipse cx="7" cy="34" rx="6" ry="4.5" fill="none" stroke="url(#handle2)" stroke-width="2.5" transform="rotate(20, 7, 34)"/>
    <line x1="11" y1="39" x2="7" y2="34" stroke="url(#handle2)" stroke-width="2.5" stroke-linecap="round"/>
  </g>
  <circle cx="24" cy="24" r="2.5" fill="#d4af37" stroke="#b8941f" stroke-width="0.5"/>
  <rect x="12" y="34" width="24" height="4" rx="1" fill="url(#comb)" stroke="#b8941f" stroke-width="0.5"/>
  <line x1="15" y1="38" x2="15" y2="43" stroke="#d4af37" stroke-width="1.5" stroke-linecap="round"/>
  <line x1="17.5" y1="38" x2="17.5" y2="43" stroke="#d4af37" stroke-width="1.5" stroke-linecap="round"/>
  <line x1="20" y1="38" x2="20" y2="43" stroke="#d4af37" stroke-width="1.5" stroke-linecap="round"/>
  <line x1="22.5" y1="38" x2="22.5" y2="43" stroke="#d4af37" stroke-width="1.5" stroke-linecap="round"/>
  <line x1="25" y1="38" x2="25" y2="43" stroke="#d4af37" stroke-width="1.5" stroke-linecap="round"/>
  <line x1="27.5" y1="38" x2="27.5" y2="43" stroke="#d4af37" stroke-width="1.5" stroke-linecap="round"/>
  <line x1="30" y1="38" x2="30" y2="43" stroke="#d4af37" stroke-width="1.5" stroke-linecap="round"/>
  <line x1="32.5" y1="38" x2="32.5" y2="43" stroke="#d4af37" stroke-width="1.5" stroke-linecap="round"/>
</svg>